<svg width="36" height="37" viewBox="0 0 36 37" fill="none" xmlns="http://www.w3.org/2000/svg">
<path d="M5.14286 0C2.30625 0 0 2.34229 0 5.22321V31.3393C0 34.2202 2.30625 36.5625 5.14286 36.5625H30.8571C33.6937 36.5625 36 34.2202 36 31.3393V5.22321C36 2.34229 33.6937 0 30.8571 0H5.14286ZM15.4286 18.2812H19.2857C20.708 18.2812 21.8571 17.1142 21.8571 15.6696C21.8571 14.2251 20.708 13.058 19.2857 13.058H15.4286V18.2812ZM19.2857 23.5045H15.4286V26.1161C15.4286 27.5606 14.2795 28.7277 12.8571 28.7277C11.4348 28.7277 10.2857 27.5606 10.2857 26.1161V11.0993C10.2857 9.29569 11.7241 7.83482 13.5 7.83482H19.2857C23.5446 7.83482 27 11.3442 27 15.6696C27 19.9951 23.5446 23.5045 19.2857 23.5045Z" fill="#C2F9BB"/>
</svg>
