<svg width="34" height="36" viewBox="0 0 34 36" fill="none" xmlns="http://www.w3.org/2000/svg">
<path d="M16.9998 36C14.3298 35.64 11.9439 34.92 9.84196 33.84C7.74007 32.76 5.95744 31.35 4.49407 29.61C3.03184 27.87 1.91727 25.8528 1.15036 23.5584C0.383453 21.264 0 18.7212 0 15.93C3.12443 16.26 5.766 16.86 7.9247 17.73C10.0834 18.6 11.8376 19.83 13.1874 21.42C14.536 23.01 15.5085 24.9978 16.105 27.3834C16.7015 29.769 16.9998 32.6412 16.9998 36ZM16.9998 20.835C16.3465 19.785 15.4586 18.75 14.336 17.73C13.2135 16.71 11.9143 15.78 10.4384 14.94C10.6089 13.68 10.8929 12.375 11.2906 11.025C11.6882 9.675 12.1711 8.3478 12.7392 7.0434C13.3072 5.7378 13.9531 4.485 14.6769 3.285C15.4006 2.085 16.1749 0.99 16.9998 0C17.8235 0.99 18.5978 2.085 19.3226 3.285C20.0475 4.485 20.6934 5.7372 21.2603 7.0416C21.8284 8.3472 22.3113 9.675 22.7089 11.025C23.1066 12.375 23.3906 13.68 23.5611 14.94C22.0841 15.75 20.7843 16.665 19.6618 17.685C18.5392 18.705 17.6519 19.755 16.9998 20.835ZM20.4082 35.28C20.3514 33.18 20.202 31.2372 19.96 29.4516C19.718 27.666 19.3419 25.9788 18.8318 24.39C20.1668 21.96 22.0062 19.98 24.3501 18.45C26.694 16.92 29.9105 16.08 33.9995 15.93C34.0279 20.67 32.8276 24.7578 30.3985 28.1934C27.9694 31.629 24.6393 33.9912 20.4082 35.28Z" fill="#C2F9BB"/>
</svg>
