<svg width="36" height="36" viewBox="0 0 36 36" fill="none" xmlns="http://www.w3.org/2000/svg">
<path d="M9.22767 0C10.207 0 11.1463 0.474106 11.8388 1.31802C12.5313 2.16193 12.9203 3.30653 12.9203 4.5C12.9203 5.69347 12.5313 6.83807 11.8388 7.68198C11.1463 8.52589 10.207 9 9.22767 9C8.24832 9 7.30909 8.52589 6.61658 7.68198C5.92408 6.83807 5.53503 5.69347 5.53503 4.5C5.53503 3.30653 5.92408 2.16193 6.61658 1.31802C7.30909 0.474106 8.24832 0 9.22767 0ZM5.07345 33.75V28.125H4.04644C3.41754 28.125 2.97327 27.3727 3.16944 26.6414L4.96383 20.0742L3.31368 22.732C2.69632 23.7234 1.5366 23.9133 0.728836 23.168C-0.0789286 22.4227 -0.240481 21.0094 0.371112 20.018L3.76949 14.5547C5.06191 12.4734 7.08709 11.25 9.22767 11.25C11.3682 11.25 13.3934 12.4734 14.6858 14.5547L18.0842 20.018C18.7016 21.0094 18.54 22.4227 17.7265 23.168C16.913 23.9133 15.7533 23.7234 15.1417 22.732L13.4915 20.0742L15.2859 26.6414C15.4878 27.3727 15.0378 28.125 14.4089 28.125H13.3819V33.75C13.3819 34.9945 12.5568 36 11.5356 36C10.5143 36 9.68925 34.9945 9.68925 33.75V28.125H8.76609V33.75C8.76609 34.9945 7.94102 36 6.91977 36C5.89853 36 5.07345 34.9945 5.07345 33.75ZM27.6909 0C28.6702 0 29.6094 0.474106 30.3019 1.31802C30.9944 2.16193 31.3835 3.30653 31.3835 4.5C31.3835 5.69347 30.9944 6.83807 30.3019 7.68198C29.6094 8.52589 28.6702 9 27.6909 9C26.7115 9 25.7723 8.52589 25.0798 7.68198C24.3873 6.83807 23.9982 5.69347 23.9982 4.5C23.9982 3.30653 24.3873 2.16193 25.0798 1.31802C25.7723 0.474106 26.7115 0 27.6909 0ZM27.2293 27V33.75C27.2293 34.9945 26.4042 36 25.383 36C24.3617 36 23.5366 34.9945 23.5366 33.75V21.1289L22.7923 22.5703C22.25 23.625 21.1076 23.9344 20.2479 23.2734C19.3882 22.6125 19.1286 21.2203 19.6709 20.1727L22.6539 14.4C23.6693 12.4383 25.4407 11.243 27.3389 11.243H28.0486C29.9526 11.243 31.7239 12.4313 32.7336 14.4L35.7166 20.1797C36.2589 21.2344 35.9993 22.6195 35.1396 23.2805C34.2799 23.9414 33.1375 23.625 32.5951 22.5773L31.8451 21.1289V33.75C31.8451 34.9945 31.02 36 29.9988 36C28.9775 36 28.1524 34.9945 28.1524 33.75V27H27.2293Z" fill="#C2F9BB"/>
</svg>
