<svg width="76" height="24" viewBox="0 0 76 24" fill="none" xmlns="http://www.w3.org/2000/svg">
<path d="M14.9732 19.4858L14.9732 1.48575C14.9727 1.30351 14.9224 1.12488 14.8279 0.969077C14.7333 0.813278 14.5981 0.686212 14.4367 0.601558C14.2753 0.516904 14.0939 0.477868 13.912 0.488651C13.73 0.499433 13.5545 0.559627 13.4042 0.662753L0.404249 9.66275C-0.13475 10.0358 -0.13475 10.9338 0.40425 11.3078L13.4042 20.3078C13.5542 20.4119 13.7298 20.473 13.912 20.4844C14.0943 20.4958 14.2761 20.457 14.4379 20.3722C14.5996 20.2875 14.735 20.1601 14.8294 20.0038C14.9238 19.8475 14.9735 19.6683 14.9732 19.4858Z" fill="black"/>
<path d="M61 1.00057L61 19.0006C61.0006 19.1828 61.0509 19.3614 61.1454 19.5172C61.2399 19.673 61.3752 19.8001 61.5366 19.8848C61.698 19.9694 61.8794 20.0085 62.0613 19.9977C62.2432 19.9869 62.4188 19.9267 62.569 19.8236L75.569 10.8236C76.108 10.4506 76.108 9.55257 75.569 9.17857L62.569 0.178573C62.4191 0.074398 62.2434 0.0133073 62.0612 0.00193832C61.879 -0.00943065 61.6971 0.029357 61.5354 0.114087C61.3737 0.198817 61.2383 0.326249 61.1439 0.482537C61.0495 0.638826 60.9997 0.817993 61 1.00057Z" fill="black"/>
<g clip-path="url(#clip0_1_130)">
<path d="M35.5 1.99997C36.1347 1.99987 36.7457 2.2412 37.209 2.67501C37.6724 3.10882 37.9534 3.70262 37.995 4.33597L38 4.49997V9.10497L43.442 9.70997C44.3855 9.81483 45.261 10.2518 45.9119 10.9429C46.5628 11.6339 46.9467 12.5339 46.995 13.482L47 13.685V14C47 16.0784 46.1911 18.0752 44.7445 19.5677C43.298 21.0601 41.3274 21.931 39.25 21.996L39 22H38.326C36.8885 21.9999 35.4775 21.6126 34.2415 20.8786C33.0055 20.1446 31.99 19.0911 31.302 17.829L31.171 17.578L28.329 11.894C27.969 11.174 28.236 10.211 29.076 9.86597C30.119 9.43897 31.11 9.35897 32.131 9.87797C32.353 9.99097 32.571 10.13 32.785 10.292L33 10.462V4.49997C33 3.83693 33.2634 3.20104 33.7322 2.7322C34.2011 2.26336 34.837 1.99997 35.5 1.99997ZM35.5 3.99997C35.383 3.99993 35.2696 4.04094 35.1797 4.11586C35.0898 4.19078 35.0291 4.29486 35.008 4.40997L35 4.49997V13C34.9998 13.207 34.9354 13.4089 34.8156 13.5777C34.6959 13.7466 34.5266 13.8741 34.3313 13.9427C34.136 14.0113 33.9241 14.0176 33.7251 13.9607C33.526 13.9037 33.3496 13.7865 33.22 13.625L32.888 13.218L32.585 12.864C32.005 12.207 31.584 11.844 31.225 11.661C31.0129 11.5461 30.7709 11.4984 30.531 11.524L30.39 11.544L32.96 16.684C33.4399 17.6435 34.1683 18.4567 35.0694 19.0391C35.9704 19.6214 37.0111 19.9515 38.083 19.995L38.326 20H39C40.5524 20 42.0444 19.3984 43.1625 18.3215C44.2806 17.2446 44.9378 15.7763 44.996 14.225L45 14V13.685C45.0001 13.2203 44.8383 12.77 44.5425 12.4116C44.2467 12.0532 43.8353 11.809 43.379 11.721L43.221 11.697L37.779 11.093C37.317 11.0417 36.8872 10.831 36.5637 10.4972C36.2401 10.1635 36.0429 9.72738 36.006 9.26397L36 9.10497V4.49997C36 4.36736 35.9473 4.24018 35.8536 4.14642C35.7598 4.05265 35.6326 3.99997 35.5 3.99997ZM30 5.99997C30.2652 5.99997 30.5196 6.10533 30.7071 6.29286C30.8946 6.4804 31 6.73475 31 6.99997C31 7.26519 30.8946 7.51954 30.7071 7.70708C30.5196 7.89461 30.2652 7.99997 30 7.99997H29C28.7348 7.99997 28.4804 7.89461 28.2929 7.70708C28.1054 7.51954 28 7.26519 28 6.99997C28 6.73475 28.1054 6.4804 28.2929 6.29286C28.4804 6.10533 28.7348 5.99997 29 5.99997H30ZM42 4.99997C42.2549 5.00025 42.5 5.09785 42.6854 5.27282C42.8707 5.44779 42.9822 5.68692 42.9972 5.94136C43.0121 6.19581 42.9293 6.44635 42.7657 6.6418C42.6021 6.83726 42.3701 6.96287 42.117 6.99297L42 6.99997H41C40.7451 6.99969 40.5 6.90209 40.3146 6.72712C40.1293 6.55215 40.0178 6.31302 40.0028 6.05857C39.9879 5.80413 40.0707 5.55359 40.2343 5.35814C40.3979 5.16268 40.6299 5.03707 40.883 5.00697L41 4.99997H42ZM30.707 1.29297L31.707 2.29297C31.8892 2.48157 31.99 2.73417 31.9877 2.99637C31.9854 3.25857 31.8802 3.50938 31.6948 3.69479C31.5094 3.8802 31.2586 3.98537 30.9964 3.98764C30.7342 3.98992 30.4816 3.88913 30.293 3.70697L29.293 2.70697C29.1108 2.51837 29.01 2.26577 29.0123 2.00357C29.0146 1.74137 29.1198 1.49056 29.3052 1.30515C29.4906 1.11974 29.7414 1.01457 30.0036 1.0123C30.2658 1.01002 30.5184 1.11081 30.707 1.29297ZM41.707 1.29297C41.8945 1.4805 41.9998 1.73481 41.9998 1.99997C41.9998 2.26513 41.8945 2.51944 41.707 2.70697L40.707 3.70697C40.6148 3.80248 40.5044 3.87866 40.3824 3.93107C40.2604 3.98348 40.1292 4.01107 39.9964 4.01222C39.8636 4.01337 39.7319 3.98807 39.609 3.93779C39.4861 3.88751 39.3745 3.81326 39.2806 3.71936C39.1867 3.62547 39.1125 3.51382 39.0622 3.39092C39.0119 3.26803 38.9866 3.13635 38.9877 3.00357C38.9889 2.87079 39.0165 2.73957 39.0689 2.61757C39.1213 2.49556 39.1975 2.38522 39.293 2.29297L40.293 1.29297C40.4805 1.1055 40.7348 1.00018 41 1.00018C41.2652 1.00018 41.5195 1.1055 41.707 1.29297Z" fill="black"/>
</g>
<defs>
<clipPath id="clip0_1_130">
<rect width="24" height="24" fill="white" transform="translate(26)"/>
</clipPath>
</defs>
</svg>
